<svg enable-background="new 0 0 1000 1000" viewBox="0 0 1000 1000" xmlns="http://www.w3.org/2000/svg"><g fill="#f1de4f"><path d="m395 132.5h-175v464.8c0 115-39.4 147.1-108.1 147.1-32.2 0-61.1-5.5-83.7-13.3l-18.2 136.2c32.2 11.1 81.5 17.7 120.1 17.7 157.6 0 264.9-74.1 264.9-286.5z"/><path d="m776.6 115c-169.4 0-276.6 96.2-276.6 223.5 0 109.6 82.6 178.1 202.7 222.4 86.8 31 121.2 58.6 121.2 104 0 49.8-39.7 81.9-114.7 81.9-69.7 0-133-23.3-175.9-46.5l-33.3 138.2c40.8 23.3 116.9 46.5 199.4 46.5 198.4 0 290.6-106.2 290.6-231.3 0-106.2-59-174.8-186.5-223.5-94.4-37.6-134-58.6-134-106.2 0-37.6 34.3-71.9 105.1-71.9 69.7 0 117.6 23.4 145.5 37.8l41.8-140c-43.8-19.1-102.7-34.9-185.3-34.9z"/></g></svg>